<?xml version="1.0" encoding="UTF-8" standalone="no"?>
<svg
   width="48"
   height="48"
   viewBox="0 0 48 48"
   fill="none"
   version="1.1"
   id="svg2"
   sodipodi:docname="logo.svg"
   inkscape:version="1.4 (86a8ad7, 2024-10-11)"
   xmlns:inkscape="http://www.inkscape.org/namespaces/inkscape"
   xmlns:sodipodi="http://sodipodi.sourceforge.net/DTD/sodipodi-0.dtd"
   xmlns="http://www.w3.org/2000/svg"
   xmlns:svg="http://www.w3.org/2000/svg">
  <sodipodi:namedview
     id="namedview2"
     pagecolor="#ffffff"
     bordercolor="#000000"
     borderopacity="0.25"
     inkscape:showpageshadow="2"
     inkscape:pageopacity="0.0"
     inkscape:pagecheckerboard="0"
     inkscape:deskcolor="#d1d1d1"
     inkscape:zoom="13.155132"
     inkscape:cx="33.104951"
     inkscape:cy="27.175706"
     inkscape:window-width="1920"
     inkscape:window-height="1137"
     inkscape:window-x="1912"
     inkscape:window-y="49"
     inkscape:window-maximized="1"
     inkscape:current-layer="svg2" />
  <rect
     width="48"
     height="48"
     rx="8.88889"
     fill="white"
     id="rect1" />
  <defs
     id="defs2">
    <linearGradient
       id="paint0_linear_1545_39"
       x1="8"
       y1="35.5"
       x2="38.0109"
       y2="10.5484"
       gradientUnits="userSpaceOnUse">
      <stop
         stop-color="#989FFF"
         id="stop1" />
      <stop
         offset="1"
         stop-color="#29A2FF"
         id="stop2" />
    </linearGradient>
  </defs>
  <text
     xml:space="preserve"
     style="font-style:normal;font-variant:normal;font-weight:normal;font-stretch:normal;font-size:15.2526px;font-family:Calibri;-inkscape-font-specification:'Calibri, Normal';font-variant-ligatures:normal;font-variant-caps:normal;font-variant-numeric:normal;font-variant-east-asian:normal;text-align:start;writing-mode:lr-tb;direction:ltr;text-anchor:start;mix-blend-mode:normal;fill:#1339ff;fill-opacity:1;stroke:none;stroke-width:0.572;stroke-dasharray:none"
     x="13.239666"
     y="40.325554"
     id="text2"
     transform="scale(1.0197838,0.9806)"><tspan
       sodipodi:role="line"
       id="tspan2"
       x="13.239666"
       y="40.325554"
       style="font-style:normal;font-variant:normal;font-weight:normal;font-stretch:normal;font-size:15.2526px;font-family:Calibri;-inkscape-font-specification:'Calibri, Normal';font-variant-ligatures:normal;font-variant-caps:normal;font-variant-numeric:normal;font-variant-east-asian:normal;fill:#1339ff;fill-opacity:1;stroke-width:0.572;stroke-dasharray:none">VM</tspan></text>
  <path
     d="m 42.373039,24.761814 c 0.07553,7.578533 1.331501,12.700279 4.534714,15.924129 3.30618,3.32808 8.62156,4.56731 16.55687,4.56731 7.93531,0 13.25069,-1.23923 16.55716,-4.56731 3.30648,-3.32809 4.53796,-8.678197 4.53796,-16.665649 0,-7.986859 -1.23148,-13.336971 -4.53796,-16.6650514 -3.30647,-3.3280813 -8.62185,-4.5673143 -16.55716,-4.5673143 -7.93531,0 -13.25069,1.239233 -16.557165,4.5673143 -3.306476,3.3280804 -4.537664,8.6781924 -4.537664,16.6656454 l 5.9e-4,0.372393 0.0029,0.36883 z m -2.064371,-1.550155 -0.003,0.402387 -0.0015,0.406545 c 0,8.717391 1.534191,14.502852 5.142785,18.135322 3.60889,3.63187 9.3568,5.17609 18.01789,5.17609 8.66051,0 14.40842,-1.54422 18.01731,-5.17609 3.60866,-3.63247 5.14285,-9.417931 5.14285,-18.135619 0,-8.717095 -1.53419,-14.5025564 -5.14278,-18.1350257 -3.60889,-3.631876 -9.3568,-5.17609099 -18.0176,-5.17609099 -8.6608,0 -14.40841,1.54421499 -18.017596,5.17609099 -3.4953,3.5190283 -5.044833,9.0580097 -5.138359,17.3266877 z"
     id="path21"
     inkscape:export-filename="path21.svg"
     inkscape:export-xdpi="96"
     inkscape:export-ydpi="96"
     style="stroke-width:0.295999" />
  <path
     d="M 33.649693,13.644905 A 1.1456719,1.140504 0 0 0 33.313842,12.838582 1.1433621,1.1382045 0 0 0 32.504173,12.504401 H 16.463228 c -0.303358,0 -0.595474,0.120029 -0.809518,0.334181 a 1.1456719,1.140504 0 0 0 -0.335848,0.806323 1.1456719,1.140504 0 0 0 0.335848,0.806478 1.1433621,1.1382045 0 0 0 0.80967,0.33418 h 16.040944 c 0.303361,0 0.595474,-0.120183 0.809518,-0.33418 a 1.1456719,1.140504 0 0 0 0.335851,-0.806324 z"
     id="path22"
     style="stroke-width:0.15364" />
  <path
     fill-opacity="0.85"
     d="M 33.490159,18.821169 A 1.1432081,1.1380513 0 0 0 33.604113,17.95552 1.143824,1.1386645 0 0 0 33.071004,17.263246 L 17.028518,8.0427921 a 1.143824,1.1386645 0 0 0 -0.868802,-0.113437 1.1432081,1.1380513 0 0 0 -0.696027,0.5311623 1.1432081,1.1380513 0 0 0 -0.114105,0.8656489 1.143824,1.1386645 0 0 0 0.533107,0.6922737 l 16.042643,9.220455 a 1.143824,1.1386645 0 0 0 0.868797,0.113435 1.1432081,1.1380513 0 0 0 0.696028,-0.531161 z"
     id="path23"
     style="fill:#000000;fill-opacity:0.85;stroke-width:0.15364" />
  <path
     fill-opacity="0.7"
     d="M 29.736081,22.614415 A 1.143978,1.1388178 0 0 0 30.154773,21.05895 L 20.895004,5.0928113 a 1.143978,1.1388178 0 0 0 -1.98121,1.1386645 l 9.259769,15.9661382 a 1.143978,1.1388178 0 0 0 1.562518,0.416801 z"
     id="path24"
     style="fill:#000080;stroke-width:0.15364" />
  <path
     fill-opacity="0.55"
     d="m 24.484314,22.770318 a 1.1456719,1.140504 0 0 0 0.809982,-0.334333 1.1433621,1.1382045 0 0 0 0.335694,-0.806017 V 5.661377 c 0,-0.3019883 -0.120576,-0.5927864 -0.335694,-0.8058641 A 1.1456719,1.140504 0 0 0 24.484314,4.5211792 1.1456719,1.140504 0 0 0 23.674181,4.8555129 1.1433621,1.1382045 0 0 0 23.338487,5.661377 v 15.968591 c 0,0.301987 0.120728,0.592939 0.335694,0.806017 a 1.1456719,1.140504 0 0 0 0.809981,0.334333 z"
     id="path25"
     style="fill:#00ffff;stroke-width:0.15364" />
  <path
     fill-opacity="0.4"
     d="m 19.335105,22.61089 a 1.1456719,1.140504 0 0 0 1.564983,-0.417262 C 22.717147,19.060919 28.33664,9.3712347 30.153541,6.2385272 A 1.1457081,1.14054 0 0 0 28.1691,5.0980234 L 18.915641,21.052967 a 1.1456719,1.140504 0 0 0 0.419464,1.557773 z"
     id="path26"
     style="fill:#00ff00;stroke-width:0.15364" />
  <path
     fill-opacity=".25"
     d="m 15.57959,18.94559 a 1.1462879,1.1411172 0 0 0 1.565136,0.41742 l 16.01631,-9.205278 A 1.1462879,1.1411172 0 0 0 33.580652,8.5996568 1.1462879,1.1411172 0 0 0 32.015518,8.1822376 L 15.999208,17.387515 A 1.1462879,1.1411172 0 0 0 15.57959,18.94559 Z"
     id="path27"
     style="fill:#ff0505;fill-opacity:0.573171;stroke-width:0.15364" />
</svg>
