<?xml version="1.0" encoding="UTF-8" standalone="no"?>
<svg
   width="716.63135"
   height="488.63593"
   viewBox="0 0 55.253997 37.675003"
   version="1.1"
   id="svg6"
   xmlns="http://www.w3.org/2000/svg"
   xmlns:svg="http://www.w3.org/2000/svg">
  <defs
     id="defs6">
    <clipPath
       clipPathUnits="userSpaceOnUse"
       id="clipPath7">
      <rect
         style="fill:#1339ff;fill-opacity:0.449239;stroke-width:0.0441026"
         id="rect8"
         width="175.70369"
         height="79.433601"
         x="10.360905"
         y="53.747192" />
    </clipPath>
  </defs>
  <g
     fill-rule="evenodd"
     clip-rule="evenodd"
     id="g6"
     clip-path="url(#clipPath7)"
     transform="translate(-72.204999,-62.655002)">
    <path
       fill="#1c4882"
       d="M 127.459,100.33 V 62.655 H 72.205 v 37.675 z"
       id="path2" />
    <path
       d="m 87.27,81.493 c 0,-6.936 5.621,-12.558 12.558,-12.558 6.936,0 12.557,5.623 12.557,12.558 0,6.935 -5.621,12.557 -12.557,12.557 -6.937,0 -12.558,-5.622 -12.558,-12.557 z m 12.519,9.539 c 5.271,0 9.545,-4.272 9.545,-9.543 0,-5.271 -4.273,-9.544 -9.545,-9.544 -5.27,0 -9.543,4.273 -9.543,9.544 0,5.271 4.273,9.543 9.543,9.543 z"
       fill="#ffffff"
       id="path3" />
    <path
       d="m 114.805,74.456 a 16.51,16.51 0 0 1 1.561,7.033 c 0,2.518 -0.561,4.904 -1.564,7.042 l -3.416,-0.004 a 13.502,13.502 0 0 0 1.969,-7.038 c 0,-2.576 -0.719,-4.979 -1.965,-7.031 z M 88.191,74.455 a 13.495,13.495 0 0 0 -1.964,7.034 c 0,2.57 0.716,4.973 1.958,7.022 l -3.411,0.006 c -1,-2.135 -1.56,-4.516 -1.56,-7.028 0,-2.519 0.562,-4.899 1.567,-7.037 z m 9.955,14.066 V 74.455 h -4.019 v 14.066 z m 7.493,0 -3.42,-7.009 3.42,-7.057 h -4.018 l -3.422,7.008 3.422,7.058 z"
       fill="#ffffff"
       id="path4" />
    <path
       d="m 82.208,81.488 c 0,-2.5 0.523,-4.879 1.465,-7.031 v -0.002 h -3.022 l -3.422,7.008 3.422,7.057 h 3.022 v -0.002 a 17.51,17.51 0 0 1 -1.465,-7.03 z m 35.163,0 c 0,-2.5 -0.523,-4.879 -1.463,-7.031 v -0.002 h 3.021 l 3.422,7.008 -3.422,7.057 h -3.021 v -0.002 a 17.525,17.525 0 0 0 1.463,-7.03 z"
       fill="#ffffff"
       id="path5" />
  </g>
</svg>
